<?xml version="1.0" encoding="UTF-8" standalone="no"?>
<svg
   width="960"
   height="540"
   viewBox="0 0 960 540"
   version="1.1"
   id="svg346"
   xmlns="http://www.w3.org/2000/svg"
   xmlns:svg="http://www.w3.org/2000/svg">
  <defs
     id="defs350" />
  <rect
     style="fill:#ffffff;fill-opacity:1"
     id="rect631"
     width="1069.843"
     height="633.64508"
     x="-46.154556"
     y="-27.494759" />
  <text
     x="480"
     y="32"
     dy="12.258064"
     text-anchor="middle"
     font-family="sans-serif"
     font-size="16.129px"
     opacity="1"
     fill="#000000"
     id="text208">Pyterion Benchmark</text>
  <text
     x="-263"
     y="27"
     dy="7.3548388"
     text-anchor="middle"
     font-family="sans-serif"
     font-size="9.67742px"
     opacity="1"
     fill="#000000"
     transform="rotate(-90)"
     id="text210">Iterations</text>
  <text
     x="480"
     y="513"
     dy="-2.4193549"
     text-anchor="middle"
     font-family="sans-serif"
     font-size="9.67742px"
     opacity="1"
     fill="#000000"
     id="text212">Average Time (ms)</text>
  <polyline
     fill="none"
     opacity="1"
     stroke="#000000"
     stroke-width="1"
     points="86,53 86,473 "
     id="polyline214" />
  <text
     x="77"
     y="430"
     dy="2.4193549"
     text-anchor="end"
     font-family="sans-serif"
     font-size="9.67742px"
     opacity="1"
     fill="#000000"
     id="text216">10</text>
  <polyline
     fill="none"
     opacity="1"
     stroke="#000000"
     stroke-width="1"
     points="81,430 86,430 "
     id="polyline218" />
  <text
     x="77"
     y="388"
     dy="2.4193549"
     text-anchor="end"
     font-family="sans-serif"
     font-size="9.67742px"
     opacity="1"
     fill="#000000"
     id="text220">20</text>
  <polyline
     fill="none"
     opacity="1"
     stroke="#000000"
     stroke-width="1"
     points="81,388 86,388 "
     id="polyline222" />
  <text
     x="77"
     y="346"
     dy="2.4193549"
     text-anchor="end"
     font-family="sans-serif"
     font-size="9.67742px"
     opacity="1"
     fill="#000000"
     id="text224">30</text>
  <polyline
     fill="none"
     opacity="1"
     stroke="#000000"
     stroke-width="1"
     points="81,346 86,346 "
     id="polyline226" />
  <text
     x="77"
     y="304"
     dy="2.4193549"
     text-anchor="end"
     font-family="sans-serif"
     font-size="9.67742px"
     opacity="1"
     fill="#000000"
     id="text228">40</text>
  <polyline
     fill="none"
     opacity="1"
     stroke="#000000"
     stroke-width="1"
     points="81,304 86,304 "
     id="polyline230" />
  <text
     x="77"
     y="262"
     dy="2.4193549"
     text-anchor="end"
     font-family="sans-serif"
     font-size="9.67742px"
     opacity="1"
     fill="#000000"
     id="text232">50</text>
  <polyline
     fill="none"
     opacity="1"
     stroke="#000000"
     stroke-width="1"
     points="81,262 86,262 "
     id="polyline234" />
  <text
     x="77"
     y="220"
     dy="2.4193549"
     text-anchor="end"
     font-family="sans-serif"
     font-size="9.67742px"
     opacity="1"
     fill="#000000"
     id="text236">60</text>
  <polyline
     fill="none"
     opacity="1"
     stroke="#000000"
     stroke-width="1"
     points="81,220 86,220 "
     id="polyline238" />
  <text
     x="77"
     y="178"
     dy="2.4193549"
     text-anchor="end"
     font-family="sans-serif"
     font-size="9.67742px"
     opacity="1"
     fill="#000000"
     id="text240">70</text>
  <polyline
     fill="none"
     opacity="1"
     stroke="#000000"
     stroke-width="1"
     points="81,178 86,178 "
     id="polyline242" />
  <text
     x="77"
     y="136"
     dy="2.4193549"
     text-anchor="end"
     font-family="sans-serif"
     font-size="9.67742px"
     opacity="1"
     fill="#000000"
     id="text244">80</text>
  <polyline
     fill="none"
     opacity="1"
     stroke="#000000"
     stroke-width="1"
     points="81,136 86,136 "
     id="polyline246" />
  <text
     x="77"
     y="94"
     dy="2.4193549"
     text-anchor="end"
     font-family="sans-serif"
     font-size="9.67742px"
     opacity="1"
     fill="#000000"
     id="text248">90</text>
  <polyline
     fill="none"
     opacity="1"
     stroke="#000000"
     stroke-width="1"
     points="81,94 86,94 "
     id="polyline250" />
  <polyline
     fill="none"
     opacity="1"
     stroke="#000000"
     stroke-width="1"
     points="87,473 873,473 "
     id="polyline252" />
  <text
     x="129"
     y="483"
     dy="7.3548388"
     text-anchor="middle"
     font-family="sans-serif"
     font-size="9.67742px"
     opacity="1"
     fill="#000000"
     id="text254">1.06</text>
  <polyline
     fill="none"
     opacity="1"
     stroke="#000000"
     stroke-width="1"
     points="129,473 129,478 "
     id="polyline256" />
  <text
     x="252"
     y="483"
     dy="7.3548388"
     text-anchor="middle"
     font-family="sans-serif"
     font-size="9.67742px"
     opacity="1"
     fill="#000000"
     id="text258">1.08</text>
  <polyline
     fill="none"
     opacity="1"
     stroke="#000000"
     stroke-width="1"
     points="252,473 252,478 "
     id="polyline260" />
  <text
     x="374"
     y="483"
     dy="7.3548388"
     text-anchor="middle"
     font-family="sans-serif"
     font-size="9.67742px"
     opacity="1"
     fill="#000000"
     id="text262">1.1</text>
  <polyline
     fill="none"
     opacity="1"
     stroke="#000000"
     stroke-width="1"
     points="374,473 374,478 "
     id="polyline264" />
  <text
     x="496"
     y="483"
     dy="7.3548388"
     text-anchor="middle"
     font-family="sans-serif"
     font-size="9.67742px"
     opacity="1"
     fill="#000000"
     id="text266">1.12</text>
  <polyline
     fill="none"
     opacity="1"
     stroke="#000000"
     stroke-width="1"
     points="496,473 496,478 "
     id="polyline268" />
  <text
     x="618"
     y="483"
     dy="7.3548388"
     text-anchor="middle"
     font-family="sans-serif"
     font-size="9.67742px"
     opacity="1"
     fill="#000000"
     id="text270">1.14</text>
  <polyline
     fill="none"
     opacity="1"
     stroke="#000000"
     stroke-width="1"
     points="618,473 618,478 "
     id="polyline272" />
  <text
     x="741"
     y="483"
     dy="7.3548388"
     text-anchor="middle"
     font-family="sans-serif"
     font-size="9.67742px"
     opacity="1"
     fill="#000000"
     id="text274">1.16</text>
  <polyline
     fill="none"
     opacity="1"
     stroke="#000000"
     stroke-width="1"
     points="741,473 741,478 "
     id="polyline276" />
  <text
     x="863"
     y="483"
     dy="7.3548388"
     text-anchor="middle"
     font-family="sans-serif"
     font-size="9.67742px"
     opacity="1"
     fill="#000000"
     id="text278">1.18</text>
  <polyline
     fill="none"
     opacity="1"
     stroke="#000000"
     stroke-width="1"
     points="863,473 863,478 "
     id="polyline280" />
  <text
     x="263"
     y="-933"
     dy="7.3548388"
     text-anchor="middle"
     font-family="sans-serif"
     font-size="9.67742px"
     opacity="1"
     fill="#000000"
     transform="rotate(90)"
     id="text282">Density (a.u.)</text>
  <polyline
     fill="none"
     opacity="1"
     stroke="#000000"
     stroke-width="1"
     points="873,54 873,473 "
     id="polyline284" />
  <text
     x="883"
     y="398"
     dy="2.4193549"
     text-anchor="start"
     font-family="sans-serif"
     font-size="9.67742px"
     opacity="1"
     fill="#000000"
     id="text286">5</text>
  <polyline
     fill="none"
     opacity="1"
     stroke="#000000"
     stroke-width="1"
     points="873,398 878,398 "
     id="polyline288" />
  <text
     x="883"
     y="324"
     dy="2.4193549"
     text-anchor="start"
     font-family="sans-serif"
     font-size="9.67742px"
     opacity="1"
     fill="#000000"
     id="text290">10</text>
  <polyline
     fill="none"
     opacity="1"
     stroke="#000000"
     stroke-width="1"
     points="873,324 878,324 "
     id="polyline292" />
  <text
     x="883"
     y="249"
     dy="2.4193549"
     text-anchor="start"
     font-family="sans-serif"
     font-size="9.67742px"
     opacity="1"
     fill="#000000"
     id="text294">15</text>
  <polyline
     fill="none"
     opacity="1"
     stroke="#000000"
     stroke-width="1"
     points="873,249 878,249 "
     id="polyline296" />
  <text
     x="883"
     y="175"
     dy="2.4193549"
     text-anchor="start"
     font-family="sans-serif"
     font-size="9.67742px"
     opacity="1"
     fill="#000000"
     id="text298">20</text>
  <polyline
     fill="none"
     opacity="1"
     stroke="#000000"
     stroke-width="1"
     points="873,175 878,175 "
     id="polyline300" />
  <text
     x="883"
     y="100"
     dy="2.4193549"
     text-anchor="start"
     font-family="sans-serif"
     font-size="9.67742px"
     opacity="1"
     fill="#000000"
     id="text302">25</text>
  <polyline
     fill="none"
     opacity="1"
     stroke="#000000"
     stroke-width="1"
     points="873,100 878,100 "
     id="polyline304" />
  <polygon
     opacity="0.5"
     fill="#1f78b4"
     points="93,472 94,472 96,472 98,472 99,472 101,472 102,472 104,472 105,471 107,471 109,471 110,471 112,471 113,471 115,470 116,470 118,470 120,470 121,470 123,469 124,469 126,469 127,468 129,468 131,467 132,467 134,467 135,466 137,466 138,465 140,464 142,464 143,463 145,463 146,462 148,461 150,460 151,459 153,459 154,458 156,457 157,456 159,455 161,454 162,453 164,452 165,450 167,449 168,448 170,447 172,445 173,444 175,443 176,441 178,440 179,438 181,436 183,435 184,433 186,431 187,429 189,427 190,425 192,423 194,421 195,419 197,416 198,414 200,411 201,409 203,406 205,403 206,400 208,397 209,393 211,390 213,386 214,382 216,378 217,374 219,370 220,365 222,361 224,356 225,351 227,346 228,340 230,334 231,329 233,323 235,317 236,310 238,304 239,297 241,291 242,284 244,277 246,270 247,262 249,255 250,248 252,240 253,233 255,225 257,218 258,210 260,203 261,195 263,188 264,180 266,173 268,166 269,159 271,152 272,145 274,139 276,133 277,126 279,120 280,115 282,109 283,104 285,99 287,94 288,90 290,86 291,82 293,78 294,75 296,71 298,69 299,66 301,64 302,61 304,60 305,58 307,57 309,55 310,54 312,54 313,53 315,53 316,53 318,53 320,53 321,53 323,53 324,54 326,54 327,55 329,56 331,56 332,57 334,58 335,59 337,60 339,61 340,62 342,63 343,64 345,65 346,66 348,67 350,69 351,70 353,71 354,72 356,73 357,74 359,75 361,76 362,77 364,78 365,79 367,80 368,81 370,82 372,83 373,84 375,85 376,86 378,87 379,88 381,89 383,90 384,91 386,92 387,93 389,95 391,96 392,97 394,99 395,100 397,102 398,104 400,105 402,107 403,109 405,111 406,113 408,116 409,118 411,121 413,123 414,126 416,129 417,132 419,135 420,139 422,142 424,146 425,150 427,154 428,158 430,163 431,167 433,172 435,177 436,182 438,187 439,192 441,198 442,203 444,209 446,215 447,221 449,227 450,233 452,239 454,245 455,251 457,258 458,264 460,270 461,277 463,283 465,290 466,296 468,302 469,309 471,315 472,321 474,327 476,333 477,339 479,345 480,351 482,356 483,362 485,367 487,372 488,377 490,382 491,387 493,391 494,396 496,400 498,404 499,408 501,412 502,416 504,419 505,423 507,426 509,429 510,432 512,434 513,437 515,439 517,442 518,444 520,446 521,448 523,450 524,452 526,453 528,455 529,456 531,457 532,459 534,460 535,461 537,462 539,463 540,464 542,464 543,465 545,466 546,466 548,467 550,468 551,468 553,468 554,469 556,469 557,470 559,470 561,470 562,470 564,471 565,471 567,471 568,471 570,471 572,471 573,472 575,472 576,472 578,472 580,472 581,472 583,472 584,472 586,472 587,472 589,472 591,472 592,472 594,472 595,472 597,472 598,472 600,472 602,472 603,472 605,472 606,472 608,472 609,472 611,472 613,472 614,472 616,472 617,472 619,472 620,472 622,472 624,472 625,472 627,472 628,472 630,472 632,472 633,472 635,472 636,472 638,472 639,472 641,472 643,472 644,472 646,472 647,472 649,472 650,472 652,472 654,472 655,472 657,472 658,472 660,472 661,472 663,471 665,471 666,471 668,471 669,471 671,471 672,471 674,470 676,470 677,470 679,470 680,470 682,469 683,469 685,469 687,469 688,468 690,468 691,468 693,467 695,467 696,467 698,466 699,466 701,465 702,465 704,465 706,464 707,464 709,463 710,463 712,462 713,462 715,461 717,461 718,460 720,460 721,459 723,459 724,458 726,458 728,457 729,457 731,457 732,456 734,456 735,455 737,455 739,455 740,454 742,454 743,454 745,454 746,454 748,453 750,453 751,453 753,453 754,453 756,453 758,453 759,453 761,454 762,454 764,454 765,454 767,454 769,455 770,455 772,455 773,456 775,456 776,456 778,457 780,457 781,458 783,458 784,459 786,459 787,460 789,460 791,460 792,461 794,461 795,462 797,462 798,463 800,463 802,464 803,464 805,465 806,465 808,466 809,466 811,466 813,467 814,467 816,467 817,468 819,468 821,468 822,469 824,469 825,469 827,470 828,470 830,470 832,470 833,470 835,471 836,471 838,471 839,471 841,471 843,471 844,471 846,472 847,472 849,472 850,472 852,472 854,472 855,472 857,472 858,472 860,472 861,472 863,472 865,472 866,472 868,472 869,472 871,472 873,472 873,473 87,473 87,472 88,472 90,472 91,472 "
     id="polygon306" />
  <polyline
     fill="none"
     opacity="1"
     stroke="#1f78b4"
     stroke-width="1"
     points="357,472 357,53 "
     id="polyline308" />
  <polyline
     fill="none"
     opacity="1"
     stroke="#ff7f00"
     stroke-width="1"
     points="128,472 128,53 "
     id="polyline310" />
  <polyline
     fill="none"
     opacity="1"
     stroke="#ff7f00"
     stroke-width="1"
     points="579,472 579,53 "
     id="polyline312" />
  <polyline
     fill="none"
     opacity="1"
     stroke="#e31a1c"
     stroke-width="1"
     points="87,472 87,53 "
     id="polyline314" />
  <polyline
     fill="none"
     opacity="1"
     stroke="#e31a1c"
     stroke-width="1"
     points="748,472 748,53 "
     id="polyline316" />
  <circle
     cx="745"
     cy="463"
     r="3"
     opacity="1"
     fill="#1f78b4"
     stroke="none"
     stroke-width="1"
     id="circle318" />
  <circle
     cx="763"
     cy="442"
     r="3"
     opacity="1"
     fill="#1f78b4"
     stroke="none"
     stroke-width="1"
     id="circle320" />
  <circle
     cx="745"
     cy="463"
     r="3"
     opacity="1"
     fill="#ff7f00"
     stroke="none"
     stroke-width="1"
     id="circle322" />
  <circle
     cx="763"
     cy="442"
     r="3"
     opacity="1"
     fill="#e31a1c"
     stroke="none"
     stroke-width="1"
     id="circle324" />
  <text
     x="776"
     y="228"
     dy="7.3548388"
     text-anchor="start"
     font-family="sans-serif"
     font-size="9.67742px"
     opacity="1"
     fill="#000000"
     id="text326">PDF</text>
  <text
     x="776"
     y="243"
     dy="7.3548388"
     text-anchor="start"
     font-family="sans-serif"
     font-size="9.67742px"
     opacity="1"
     fill="#000000"
     id="text328">Mean</text>
  <text
     x="776"
     y="258"
     dy="7.3548388"
     text-anchor="start"
     font-family="sans-serif"
     font-size="9.67742px"
     opacity="1"
     fill="#000000"
     id="text330">&quot;Clean&quot; sample</text>
  <text
     x="776"
     y="273"
     dy="7.3548388"
     text-anchor="start"
     font-family="sans-serif"
     font-size="9.67742px"
     opacity="1"
     fill="#000000"
     id="text332">Mild outliers</text>
  <text
     x="776"
     y="288"
     dy="7.3548388"
     text-anchor="start"
     font-family="sans-serif"
     font-size="9.67742px"
     opacity="1"
     fill="#000000"
     id="text334">Severe outliers</text>
  <rect
     x="746"
     y="228"
     width="20"
     height="10"
     opacity="0.5"
     fill="#1f78b4"
     stroke="none"
     id="rect336" />
  <polyline
     fill="none"
     opacity="1"
     stroke="#1f78b4"
     stroke-width="1"
     points="746,248 766,248 "
     id="polyline338" />
  <circle
     cx="756"
     cy="263"
     r="3"
     opacity="1"
     fill="#1f78b4"
     stroke="none"
     stroke-width="1"
     id="circle340" />
  <circle
     cx="756"
     cy="278"
     r="3"
     opacity="1"
     fill="#ff7f00"
     stroke="none"
     stroke-width="1"
     id="circle342" />
  <circle
     cx="756"
     cy="293"
     r="3"
     opacity="1"
     fill="#e31a1c"
     stroke="none"
     stroke-width="1"
     id="circle344" />
</svg>
